<?xml version="1.0" standalone="no"?>
<!DOCTYPE svg PUBLIC "-//W3C//DTD SVG 20010904//EN"
 "http://www.w3.org/TR/2001/REC-SVG-20010904/DTD/svg10.dtd">
<svg version="1.0" xmlns="http://www.w3.org/2000/svg"
 width="700.000000pt" height="700.000000pt" viewBox="0 0 700.000000 700.000000"
 preserveAspectRatio="xMidYMid meet">
<metadata>
Created by potrace 1.14, written by Peter Selinger 2001-2017
</metadata>
<g transform="translate(0.000000,700.000000) scale(0.100000,-0.100000)"
fill="#000000" stroke="none">
<path d="M1413 5482 l-91 -3 -37 -42 c-33 -37 -161 -176 -255 -277 -19 -21
-72 -78 -116 -126 -120 -130 -128 -139 -233 -253 -53 -57 -103 -111 -111 -120
-9 -9 -61 -65 -115 -125 -55 -60 -126 -137 -157 -170 -32 -34 -58 -63 -58 -66
0 -3 328 -6 729 -7 l729 -2 114 122 c63 67 141 151 174 186 32 35 70 76 84 91
213 226 266 283 271 291 3 5 372 9 861 9 l855 0 54 59 c59 64 326 346 373 393
16 16 26 31 23 34 -6 6 -2926 11 -3094 6z"/>
<path d="M2390 4838 c-84 -89 -170 -180 -315 -333 -72 -77 -144 -153 -159
-170 -15 -16 -62 -66 -104 -110 -43 -44 -144 -152 -227 -240 -82 -87 -178
-189 -212 -225 -43 -45 -57 -67 -48 -70 8 -3 347 -5 754 -4 l739 0 70 75 c38
41 81 88 96 104 15 17 53 57 84 90 32 33 116 123 187 200 72 76 150 160 175
185 l45 46 845 -1 845 -1 95 96 c70 70 325 336 398 414 2 2 -721 3 -1605 3
l-1608 0 -55 -59z"/>
<path d="M3588 4292 c-25 -3 -53 -30 -278 -276 -30 -33 -66 -71 -80 -86 -14
-15 -68 -73 -120 -130 -52 -57 -108 -118 -125 -136 -60 -64 -211 -227 -235
-254 -14 -15 -68 -74 -121 -131 -53 -57 -115 -124 -137 -149 l-40 -45 1605 -3
1605 -2 26 28 c15 16 70 76 122 133 52 57 125 135 161 174 36 38 92 99 125
134 32 36 72 79 88 95 15 17 67 73 115 125 47 52 102 111 121 132 36 38 192
208 270 293 25 28 56 60 70 73 l25 22 -55 1 c-228 3 -3121 4 -3142 2z"/>
<path d="M2055 2688 c-41 -47 -94 -104 -260 -282 -60 -65 -118 -128 -128 -140
-10 -11 -42 -46 -70 -76 -29 -31 -97 -105 -152 -165 -55 -60 -127 -138 -161
-174 -34 -36 -73 -79 -89 -96 -15 -16 -66 -72 -113 -123 -48 -52 -88 -98 -90
-103 -5 -11 -215 -10 1618 -10 l1584 -1 69 74 c38 40 124 131 191 202 66 71
141 151 166 177 25 26 97 102 160 169 63 68 133 141 155 165 43 45 290 308
315 335 8 10 31 33 49 53 l35 37 -1620 0 -1621 0 -38 -42z"/>
</g>
</svg>
