<?xml version="1.0" standalone="no"?>
<!DOCTYPE svg PUBLIC "-//W3C//DTD SVG 20010904//EN"
 "http://www.w3.org/TR/2001/REC-SVG-20010904/DTD/svg10.dtd">
<svg version="1.0" xmlns="http://www.w3.org/2000/svg"
 width="2520.000000pt" height="2520.000000pt" viewBox="0 0 2520.000000 2520.000000"
 preserveAspectRatio="xMidYMid meet">
<metadata>
Created by potrace 1.14, written by Peter Selinger 2001-2017
</metadata>
<g transform="translate(0.000000,2520.000000) scale(0.100000,-0.100000)"
fill="#000000" stroke="none">
<path d="M16720 14883 c-277 -300 -612 -664 -744 -807 -131 -144 -255 -278
-275 -298 l-35 -38 1046 0 1046 0 462 495 461 495 1198 -7 1197 -6 332 348
c183 192 332 353 332 357 0 4 -1016 8 -2258 8 l-2258 0 -504 -547z"/>
<path d="M8383 15213 c-51 -109 -169 -362 -263 -563 -317 -675 -420 -896 -420
-903 0 -4 293 -7 651 -7 717 0 779 4 956 60 355 113 636 400 823 842 158 376
140 591 -57 695 -128 68 -103 66 -888 70 l-710 4 -92 -198z m1041 -263 c92
-47 110 -137 57 -287 -45 -128 -105 -228 -196 -319 -142 -144 -249 -176 -566
-172 l-195 3 150 320 c83 176 168 358 190 403 l39 84 236 -4 c230 -3 238 -4
285 -28z"/>
<path d="M10310 14584 c-393 -454 -716 -829 -718 -835 -2 -5 123 -9 326 -9
l330 0 77 95 77 95 315 0 314 0 -7 -82 c-3 -46 -7 -87 -8 -93 -1 -6 115 -10
329 -10 l330 0 7 75 c4 41 14 181 23 310 16 235 28 408 65 934 11 153 20 294
20 312 l0 34 -382 -1 -383 0 -715 -825z m820 38 c-20 -144 -39 -265 -42 -267
-3 -3 -82 -4 -175 -3 l-170 3 211 266 c116 147 212 266 212 265 1 0 -15 -119
-36 -264z"/>
<path d="M12054 15373 c3 -21 20 -164 36 -318 17 -154 37 -334 45 -400 7 -66
21 -192 31 -281 l17 -161 -107 -226 c-58 -125 -106 -231 -106 -237 0 -6 107
-10 308 -10 l309 0 114 239 114 240 580 551 c319 304 600 572 625 596 l45 44
-360 0 -360 -1 -290 -315 -290 -315 -3 316 -2 315 -356 0 -356 0 6 -37z"/>
<path d="M14218 15292 c-389 -444 -1334 -1536 -1336 -1543 -2 -5 135 -9 327
-9 l330 0 77 95 76 95 315 0 316 0 -7 -72 c-4 -40 -8 -82 -9 -93 -2 -20 5 -20
331 -23 l332 -2 0 23 c0 13 4 82 10 153 13 172 35 493 60 859 11 165 25 355
30 423 6 67 10 143 10 167 l0 45 -380 0 -379 0 -103 -118z m203 -677 l-38
-260 -177 -3 -176 -2 196 247 c213 269 226 284 230 281 1 -2 -15 -120 -35
-263z"/>
<path d="M17996 13745 c-443 -470 -806 -857 -806 -860 0 -3 483 -5 1074 -5
l1074 0 461 495 462 495 1203 0 1203 0 285 298 c156 163 313 327 347 365 l63
67 -2280 0 -2280 0 -806 -855z"/>
<path d="M19600 12890 c-432 -468 -786 -855 -788 -860 -2 -7 800 -10 2268 -10
l2271 0 26 28 c175 185 1549 1677 1551 1683 2 5 -976 9 -2270 9 l-2274 0 -784
-850z"/>
<path d="M10850 13460 c-277 -20 -486 -76 -655 -174 -95 -55 -248 -210 -297
-299 -81 -148 -107 -275 -74 -362 39 -100 130 -146 366 -185 391 -64 548 -93
570 -103 67 -32 14 -141 -90 -186 -63 -27 -218 -38 -305 -22 -67 12 -110 48
-100 82 3 10 8 28 11 39 5 20 1 20 -370 20 l-375 0 -20 -44 c-101 -229 -12
-394 251 -466 298 -80 890 -58 1201 44 90 30 217 92 283 137 182 125 339 362
351 530 10 123 -34 197 -150 254 -79 39 -106 45 -582 125 -175 29 -305 56
-313 64 -19 18 5 73 46 108 52 44 95 53 242 53 110 0 142 -3 172 -18 43 -22
63 -62 49 -99 -5 -14 -7 -29 -4 -32 4 -3 167 -6 364 -6 l358 0 21 66 c65 213
-24 355 -270 425 -145 42 -466 65 -680 49z"/>
<path d="M1384 13378 c-9 -17 -90 -185 -179 -372 -89 -188 -257 -540 -374
-784 -116 -243 -211 -445 -211 -447 0 -3 140 -5 311 -5 l310 0 108 223 108
222 128 80 c70 44 133 83 139 87 8 4 29 -82 70 -285 32 -161 60 -300 63 -310
4 -16 44 -17 710 -15 l706 3 155 323 155 322 338 0 338 0 -43 -92 c-24 -51
-81 -169 -126 -263 -100 -206 -130 -272 -130 -285 0 -6 225 -10 620 -10 l620
0 77 95 78 94 314 1 314 0 -7 -72 c-3 -39 -9 -82 -12 -95 l-6 -23 627 2 627 3
117 245 117 245 235 2 c283 3 284 3 283 -77 0 -44 -14 -86 -63 -205 -35 -82
-65 -165 -68 -182 l-6 -33 342 0 341 0 -6 45 c-9 61 5 111 96 335 44 107 84
218 90 247 14 63 1 119 -35 153 l-25 23 83 40 c64 31 100 57 163 121 134 134
206 283 207 426 1 123 -44 187 -158 223 -70 22 -74 22 -815 22 l-744 0 -39
-80 c-22 -44 -114 -235 -205 -425 -90 -190 -192 -403 -227 -475 -34 -71 -104
-218 -155 -325 -51 -107 -95 -197 -97 -200 -6 -6 1 116 22 415 8 110 24 328
35 485 11 157 25 343 30 414 6 71 10 144 10 162 l0 34 -379 0 -379 0 -643
-727 c-354 -400 -656 -741 -672 -758 -25 -28 -24 -22 16 65 43 93 172 363 317
665 227 474 350 735 350 744 0 8 -93 11 -308 11 l-309 0 -53 -112 c-30 -62
-91 -191 -137 -285 l-83 -173 -335 0 c-184 0 -335 3 -335 8 0 4 58 129 130
279 71 149 130 274 130 277 0 4 -141 5 -312 4 l-313 -3 -217 -455 c-531 -1111
-532 -1113 -540 -1094 -4 11 -44 150 -88 309 -44 160 -99 361 -123 448 l-44
157 196 124 c629 397 786 498 789 506 2 6 -146 10 -403 10 l-407 0 -402 -273
c-220 -150 -406 -276 -413 -280 -17 -11 -5 16 126 286 60 125 113 236 116 247
6 20 0 20 -304 20 l-310 0 -17 -32z m6886 -399 c41 -9 53 -16 61 -36 22 -59
-56 -188 -138 -229 -33 -17 -68 -19 -291 -22 l-252 -4 43 94 c24 51 57 119 73
151 l28 57 213 0 c116 0 235 -5 263 -11z m-2175 -249 c-48 -324 -54 -363 -58
-367 -2 -2 -82 -2 -176 -1 l-172 3 212 263 c117 144 213 261 214 260 1 -2 -8
-73 -20 -158z"/>
<path d="M9316 13318 c-24 -51 -71 -149 -104 -218 -264 -551 -632 -1323 -632
-1326 0 -2 141 -4 313 -4 l314 0 15 38 c9 20 107 226 218 457 111 231 214 447
230 480 15 33 91 192 169 354 78 162 141 298 141 303 0 4 -140 8 -310 8 l-311
0 -43 -92z"/>
<path d="M12116 13318 c-52 -112 -165 -349 -486 -1018 -133 -278 -244 -511
-247 -517 -4 -10 56 -13 279 -13 l285 0 71 148 c186 388 256 534 357 745 59
125 109 226 111 224 2 -1 -3 -32 -11 -67 -8 -36 -53 -263 -100 -505 -47 -242
-90 -459 -95 -482 -6 -23 -10 -47 -10 -52 0 -8 77 -11 238 -11 l237 0 415 547
c467 615 445 587 430 556 -6 -12 -85 -179 -176 -370 -92 -191 -206 -432 -255
-534 -49 -103 -89 -189 -89 -193 0 -3 267 -6 594 -6 l594 0 78 95 78 95 314 0
315 0 -7 -52 c-4 -29 -9 -72 -12 -96 l-6 -42 333 2 334 3 7 100 c3 55 14 199
22 320 19 256 40 553 61 850 8 116 18 245 21 288 l5 77 -382 -2 -383 -3 -474
-535 c-524 -592 -805 -909 -845 -955 -17 -19 26 81 114 265 78 162 158 331
179 375 21 44 119 251 219 459 100 208 181 383 181 387 0 5 -195 9 -434 9
l-434 0 -338 -452 c-185 -249 -342 -459 -349 -466 -8 -9 -2 38 16 125 16 76
38 181 49 233 10 52 35 172 55 265 45 216 55 264 55 281 0 12 -74 14 -435 14
l-436 0 -43 -92z m3019 -700 c-19 -134 -35 -247 -35 -251 0 -4 -79 -7 -175 -7
-96 0 -175 2 -175 5 0 12 415 516 418 507 1 -5 -13 -119 -33 -254z"/>
<path d="M17524 10685 c-434 -470 -790 -860 -792 -865 -3 -7 762 -10 2271 -10
l2275 0 806 855 c443 471 806 860 806 865 0 6 -840 10 -2289 10 l-2289 0 -788
-855z"/>
<path d="M7456 11448 c-19 -40 -86 -185 -151 -323 -363 -772 -377 -804 -394
-925 -29 -212 71 -330 329 -386 122 -27 638 -27 780 -1 258 49 433 131 584
276 144 137 201 235 441 749 l118 252 273 0 c151 0 274 -4 274 -9 0 -8 -65
-148 -404 -870 -91 -195 -166 -359 -166 -363 0 -5 140 -7 311 -6 l311 3 115
245 c251 534 426 907 446 950 l22 45 285 3 286 2 96 208 c53 114 94 210 92
214 -3 5 -536 8 -1184 8 -932 0 -1180 -3 -1187 -12 -8 -14 -139 -292 -350
-743 -74 -159 -151 -313 -170 -342 -87 -131 -211 -193 -388 -193 -91 0 -173
20 -199 49 -9 10 -19 35 -23 54 -11 70 -25 38 378 896 71 150 126 277 123 282
-3 5 -142 9 -310 9 l-305 0 -33 -72z"/>
<path d="M11459 11473 c-118 -128 -1394 -1607 -1397 -1619 -3 -12 49 -14 322
-14 l325 0 78 95 77 95 319 0 c298 0 318 -1 313 -17 -2 -10 -8 -53 -12 -95
l-6 -78 590 0 c459 0 592 3 600 13 5 6 78 158 162 337 332 710 374 799 376
797 2 -1 -8 -56 -21 -122 -13 -66 -49 -250 -80 -410 -31 -159 -69 -358 -85
-441 -17 -83 -30 -156 -30 -162 0 -9 59 -12 237 -10 l238 3 415 557 c228 306
419 561 423 565 11 10 -14 -46 -163 -362 -286 -609 -350 -747 -350 -756 0 -5
226 -9 593 -9 l592 0 75 95 75 94 319 1 319 0 -7 -52 c-4 -29 -10 -72 -13 -95
l-6 -43 331 0 332 0 4 23 c3 12 10 99 16 192 5 94 17 262 25 375 8 113 21 304
30 425 8 121 22 316 30 433 9 117 13 217 10 222 -4 6 -151 10 -380 10 l-373 0
-484 -557 c-266 -307 -566 -654 -668 -770 -101 -117 -185 -211 -187 -209 -2 1
40 94 93 207 99 210 295 628 498 1062 64 137 114 253 111 258 -4 5 -182 9
-430 9 -410 0 -425 -1 -443 -20 -10 -11 -168 -224 -351 -475 -183 -250 -335
-455 -338 -455 -2 0 -2 8 1 18 3 9 37 172 76 362 39 190 80 390 91 444 11 54
18 105 15 112 -4 12 -83 14 -430 14 l-426 0 -15 -24 c-15 -22 -97 -196 -490
-1036 -73 -157 -156 -332 -184 -390 l-51 -105 5 75 c3 41 12 170 20 285 8 116
21 311 30 435 9 124 22 320 31 435 8 116 15 235 17 265 l2 55 -376 3 -376 2
-44 -47z m134 -761 l-38 -262 -172 0 c-95 0 -173 2 -173 5 0 9 412 526 416
522 2 -2 -13 -122 -33 -265z m4262 -8 c-20 -137 -38 -250 -39 -252 -2 -1 -81
-1 -175 0 l-172 3 208 262 c114 145 209 257 211 249 2 -7 -13 -125 -33 -262z"/>
</g>
</svg>
