<?xml version="1.0" encoding="utf-8"?>
<!-- Generator: Adobe Illustrator 16.0.2, SVG Export Plug-In . SVG Version: 6.00 Build 0)  -->
<!DOCTYPE svg PUBLIC "-//W3C//DTD SVG 1.1//EN" "http://www.w3.org/Graphics/SVG/1.1/DTD/svg11.dtd">
<svg version="1.1" id="Layer_1" xmlns="http://www.w3.org/2000/svg" xmlns:xlink="http://www.w3.org/1999/xlink" x="0px" y="0px"
	 width="1259.766px" height="394px" viewBox="0 0 1259.766 394" enable-background="new 0 0 1259.766 394" xml:space="preserve">
<g id="STICKER" display="none">
	<polygon display="inline" fill="#EA2628" points="97.729,150.404 15.078,150.385 76.733,83.5 256.492,83.5 231.538,109.766 
		230.288,111.058 134.474,111.037 	"/>
	<polyline display="inline" fill="#044793" points="197.419,145.156 160.697,184.545 75.441,184.545 139.722,116.348 
		320.771,116.328 293.214,145.156 	"/>
	<polyline display="inline" fill="#23CC23" points="383.76,150.445 320.771,218.662 139.722,218.641 202.71,150.436 	"/>
	<polygon display="inline" fill="#0292CF" points="120.038,238.307 302.4,238.346 238.142,306.543 57.069,306.563 	"/>
	<g display="inline">
		
			<text transform="matrix(0.9422 0 0 1 403.9932 211.5764)" fill="#044793" font-family="'HelveticaNeueLTStd-BlkEx'" font-size="173.1349">SUZUKI</text>
	</g>
	<g display="inline">
		
			<text transform="matrix(0.845 0 -0.4384 0.8988 403.4082 267.4475)" fill="#044793" font-family="'HelveticaNeueLTStd-BlkEx'" font-size="59.8776">DAYA KHARISMA UTAMA</text>
	</g>
	<g display="inline">
		<text transform="matrix(0.9249 0 0 1 403.9922 304.4631)" fill="#044793" font-family="'Helvetica'" font-size="36.0698">PONTIANAK • SINGKAWANG • KETAPANG • SINTANG</text>
	</g>
</g>
<g id="LOGO">
	<g display="none">
		
			<text transform="matrix(0.8491 0 -0.4247 0.9053 95.2031 602.6379)" display="inline" fill="#044793" font-family="'HelveticaNeueLTStd-BlkEx'" font-size="128.3574" letter-spacing="-4.711">DAYA</text>
	</g>
	<g display="none">
		
			<text transform="matrix(0.8626 0 -0.4314 0.9022 -258.8438 701.2805)" display="inline" fill="#044793" font-family="'HelveticaNeueLTStd-BlkEx'" font-size="126.3604" letter-spacing="-4.637">KHARISMA</text>
	</g>
	<g display="none">
		
			<text transform="matrix(0.8488 0 -0.4245 0.9054 47.3428 797.55)" display="inline" fill="#044793" font-family="'HelveticaNeueLTStd-BlkEx'" font-size="128.4104" letter-spacing="-4.713">UTAMA</text>
	</g>
	<polygon fill="#EA2628" points="887.262,139.936 783.424,139.908 860.883,55.88 1086.721,55.88 1055.37,88.878 1053.799,90.502 
		933.424,90.476 	"/>
	<polyline fill="#044793" points="1012.504,133.34 966.37,182.824 859.26,182.824 940.018,97.149 1167.477,97.123 1132.854,133.34 	
		"/>
	<polyline fill="#3ED9E5" points="1246.61,139.986 1167.477,225.688 940.018,225.662 1019.151,139.975 	"/>
	<polygon fill="#0292CF" points="915.29,250.367 1144.395,250.418 1063.667,336.096 836.18,336.121 	"/>
	<g>
		<g>
			<path fill="#044793" d="M423.643,56.666h59.838c26.375,0,35.204,10.924,20.868,41.485
				c-13.682,29.168-33.302,41.486-59.134,41.486h-60.491L423.643,56.666z M425.271,118.721h17.657
				c14.06,0,23.217-7.438,29.376-20.568c6.159-13.132,3.979-20.568-10.079-20.568h-17.658L425.271,118.721z"/>
			<path fill="#044793" d="M551.274,56.666h37.713l-5.785,82.973h-32.698l1.2-9.529H519.66l-7.739,9.529h-32.698L551.274,56.666z
				 M558.467,81.767h-0.218l-22.348,28.122h18.529L558.467,81.767z"/>
			<path fill="#044793" d="M609.093,116.28l-6.59-59.613H637.6l-0.438,32.538l30.084-32.538h35.096l-62.514,59.613l-10.957,23.358
				h-30.735L609.093,116.28z"/>
			<path fill="#044793" d="M715.856,56.666h37.711l-5.783,82.973h-32.699l1.201-9.529h-32.045l-7.738,9.529h-32.699L715.856,56.666z
				 M723.047,81.767h-0.217l-22.348,28.122h18.527L723.047,81.767z"/>
		</g>
	</g>
	<g>
		<g>
			<path fill="#044793" d="M86.484,207.045l-14.606,9.348L61.413,238.28H30.677l38.918-81.395h30.736l-13.736,28.728l42.293-28.728
				h40.763l-49.813,31.464l13.838,49.931H92.803L86.484,207.045z"/>
			<path fill="#044793" d="M212.972,205.791h-34.551l-15.534,32.488H132.15l38.918-81.395h30.736l-13.572,28.385h34.551
				l13.572-28.385h30.736l-38.918,81.395h-30.736L212.972,205.791z"/>
			<path fill="#044793" d="M298.7,156.886h37.712l-5.784,81.395H297.93l1.2-9.348h-32.044l-7.739,9.348h-32.698L298.7,156.886z
				 M305.892,181.509h-0.218l-22.346,27.588h18.528L305.892,181.509z"/>
			<path fill="#044793" d="M368.021,156.886h64.742c8.828,0,13.787,0.798,17.003,2.964c4.358,2.964,5.394,10.83,1.142,19.722
				c-3.651,7.639-10.627,15.847-20.873,18.581l-0.109,0.229c3.924,1.368,5.667,5.472,2.833,12.54l-7.194,17.783
				c-1.418,3.647-1.527,7.066-0.765,9.575h-33.57c0.055-2.394,1.744-5.928,5.724-15.39c2.562-6.042,2.344-9.69-3.323-9.69H371.83
				l-11.991,25.08h-30.736L368.021,156.886z M381.642,192.682h21.799c5.994,0,9.7-2.509,12.152-7.638
				c2.944-6.157-0.162-7.64-5.285-7.64h-21.362L381.642,192.682z"/>
			<path fill="#044793" d="M467.75,156.886h30.736l-38.918,81.395h-30.736L467.75,156.886z"/>
			<path fill="#044793" d="M503.441,203.739c-13.897-2.395-15.749-11.515-10.298-22.914c10.083-21.089,32.536-26.789,57.822-26.789
				c34.66,0,44.414,9.463,37.273,26.677h-35.75c1.581-3.308,0.71-5.358-1.579-6.499c-2.125-1.254-5.396-1.709-8.773-1.709
				c-9.156,0-13.461,2.394-15.097,5.813c-1.09,2.279-0.817,3.763,2.017,4.218l34.006,5.7c14.332,2.395,20.326,9.917,13.73,23.712
				c-9.482,19.835-29.431,29.184-63.98,29.184c-23.652,0-47.85-3.42-36.512-27.359h37.059c-1.199,2.735-1.09,4.562,0.49,5.814
				c1.743,1.14,4.85,1.71,9.646,1.71c9.59,0,13.515-2.736,15.368-6.612c1.145-2.394,0.871-4.788-2.942-5.473L503.441,203.739z"/>
			<path fill="#044793" d="M607.808,156.886h43.271l-9.867,47.309h0.217l35.373-47.309h43.271l-38.918,81.395h-27.902l27.799-58.139
				h-0.219l-44.146,58.139h-23.324l11.447-58.139h-0.217l-27.799,58.139H568.89L607.808,156.886z"/>
			<path fill="#044793" d="M751.68,156.886h37.713l-5.785,81.395h-32.697l1.199-9.348h-32.045l-7.738,9.348h-32.697L751.68,156.886z
				 M758.872,181.509h-0.219l-22.346,27.588h18.529L758.872,181.509z"/>
		</g>
	</g>
	<g>
		<g>
			<path fill="#044793" d="M374.147,251.53h30.736l-23.547,50.231c-5.016,10.696-0.819,14.067,9.208,14.067
				s17.384-3.371,22.399-14.067l23.547-50.231h30.736l-24.146,51.512c-12.374,26.394-31.066,34.418-62.676,34.418
				c-31.607,0-42.778-8.024-30.404-34.418L374.147,251.53z"/>
			<path fill="#044793" d="M485.864,272.46h-28.447l9.813-20.931h87.63l-9.813,20.931h-28.447l-29.107,62.091h-30.735
				L485.864,272.46z"/>
			<path fill="#044793" d="M574.479,251.53h37.713l-5.786,83.021h-32.698l1.2-9.534h-32.044l-7.739,9.534h-32.698L574.479,251.53z
				 M581.671,276.646h-0.218l-22.347,28.139h18.527L581.671,276.646z"/>
			<path fill="#044793" d="M643.799,251.53h43.27l-9.867,48.255h0.217l35.375-48.255h43.27l-38.92,83.021h-27.9l27.799-59.3h-0.219
				l-44.148,59.3H649.35l11.449-59.3h-0.217l-27.801,59.3H604.88L643.799,251.53z"/>
			<path fill="#044793" d="M787.672,251.53h37.711l-5.785,83.021h-32.699l1.201-9.534h-32.045l-7.738,9.534H715.62L787.672,251.53z
				 M794.862,276.646h-0.217l-22.348,28.139h18.529L794.862,276.646z"/>
		</g>
	</g>
</g>
</svg>
